<?xml version="1.0" encoding="utf-8"?>
<svg viewBox="0 0 500 500" xmlns="http://www.w3.org/2000/svg" xmlns:bx="https://boxy-svg.com">
  <defs>
    <style bx:fonts="Barlow">@import url(https://fonts.googleapis.com/css2?family=Barlow%3Aital%2Cwght%400%2C100%3B0%2C200%3B0%2C300%3B0%2C400%3B0%2C500%3B0%2C600%3B0%2C700%3B0%2C800%3B0%2C900%3B1%2C100%3B1%2C200%3B1%2C300%3B1%2C400%3B1%2C500%3B1%2C600%3B1%2C700%3B1%2C800%3B1%2C900&amp;display=swap);</style>
  </defs>
  <path d="M 149.942 265.055 C 148.007 265.47 144.774 266.13 141.928 264.135 C 140.395 263.061 137.918 260.651 135.454 258.04 C 133.046 255.487 130.727 252.824 129.449 251.215 C 128.879 250.129 128.213 248.472 128.197 246.796 C 128.181 245.154 128.778 243.464 130.883 242.175 L 151.292 229.957 C 152.961 228.994 155.049 228.295 156.921 228.557 C 158.682 228.803 160.459 229.927 161.575 233.094 C 162.891 236.825 164.176 240.677 165.181 244.031 C 166.194 247.408 166.902 250.211 167.094 251.879 C 167.098 251.908 167.102 251.938 167.108 251.967 C 167.535 254.035 166.421 256.833 163.131 258.629 C 161.345 259.605 158.539 261.113 155.914 262.433 C 154.601 263.093 153.341 263.702 152.281 264.173 C 151.194 264.657 150.396 264.957 149.97 265.049 L 149.942 265.055 Z" stroke="black" stroke-width="2" stroke-linejoin="round" style="fill: rgb(255, 255, 255);"/>
  <text style="font-family: Barlow; font-size: 36px; font-weight: 700; white-space: pre;" x="176.451" y="261.003">floomiq</text>
</svg>